<svg width="147" height="28" viewBox="0 0 147 28" fill="none" xmlns="http://www.w3.org/2000/svg">
<path d="M1.464 24V8.376H5.304V14.304H9.096V8.376H12.936V24H9.096V17.64H5.304V24H1.464ZM19.6706 24.288C18.8546 24.288 18.1586 24.12 17.5826 23.784C17.0066 23.448 16.5586 23.008 16.2386 22.464C15.9346 21.92 15.7826 21.312 15.7826 20.64C15.7826 19.312 16.3666 18.296 17.5346 17.592C18.7186 16.872 20.7026 16.432 23.4866 16.272C23.4386 15.952 23.3186 15.688 23.1266 15.48C22.9346 15.256 22.6626 15.088 22.3106 14.976C21.9746 14.848 21.5586 14.784 21.0626 14.784C20.7106 14.784 20.3426 14.832 19.9586 14.928C19.5906 15.008 19.2066 15.128 18.8066 15.288C18.4226 15.448 17.9986 15.64 17.5346 15.864L16.1666 13.344C16.7586 13.024 17.3586 12.744 17.9666 12.504C18.5746 12.264 19.1986 12.08 19.8386 11.952C20.4786 11.824 21.1346 11.76 21.8066 11.76C22.9426 11.76 23.9186 11.96 24.7346 12.36C25.5506 12.744 26.1826 13.344 26.6306 14.16C27.0786 14.96 27.3026 15.992 27.3026 17.256V24H24.1826L23.9186 22.704H23.8226C23.2306 23.152 22.5826 23.528 21.8786 23.832C21.1746 24.136 20.4386 24.288 19.6706 24.288ZM20.8946 21.336C21.4066 21.336 21.8706 21.24 22.2866 21.048C22.7186 20.84 23.1186 20.592 23.4866 20.304V18.576C22.4146 18.608 21.5826 18.712 20.9906 18.888C20.3986 19.048 19.9906 19.256 19.7666 19.512C19.5426 19.752 19.4306 20.024 19.4306 20.328C19.4306 20.552 19.4866 20.744 19.5986 20.904C19.7266 21.048 19.8946 21.16 20.1026 21.24C20.3266 21.304 20.5906 21.336 20.8946 21.336ZM30.4133 24V12.048H33.5333L33.7973 13.56H33.8933C34.3893 13.08 34.9653 12.664 35.6213 12.312C36.2933 11.944 37.0773 11.76 37.9733 11.76C39.3013 11.76 40.2693 12.2 40.8773 13.08C41.5013 13.944 41.8133 15.128 41.8133 16.632V24H37.9733V17.112C37.9733 16.392 37.8613 15.864 37.6373 15.528C37.4133 15.192 37.0053 15.024 36.4133 15.024C35.9813 15.024 35.6053 15.12 35.2853 15.312C34.9653 15.488 34.6213 15.744 34.2533 16.08V24H30.4133ZM49.2679 24.288C47.7479 24.288 46.5239 23.728 45.5959 22.608C44.6839 21.488 44.2279 19.96 44.2279 18.024C44.2279 16.712 44.4759 15.592 44.9719 14.664C45.4679 13.736 46.0999 13.024 46.8679 12.528C47.6359 12.016 48.4439 11.76 49.2919 11.76C49.9479 11.76 50.4999 11.872 50.9479 12.096C51.4119 12.304 51.8279 12.608 52.1959 13.008H52.2919L52.0999 11.208V7.248H55.9399V24H52.8199L52.5559 22.848H52.4599C52.0279 23.248 51.5239 23.592 50.9479 23.88C50.3879 24.152 49.8279 24.288 49.2679 24.288ZM50.2519 21.168C50.6199 21.168 50.9559 21.096 51.2599 20.952C51.5639 20.808 51.8439 20.552 52.0999 20.184V15.576C51.8279 15.304 51.5399 15.12 51.2359 15.024C50.9479 14.928 50.6439 14.88 50.3239 14.88C49.9399 14.88 49.5799 14.984 49.2439 15.192C48.9079 15.4 48.6439 15.736 48.4519 16.2C48.2599 16.664 48.1639 17.256 48.1639 17.976C48.1639 19.096 48.3479 19.912 48.7159 20.424C49.0839 20.92 49.5959 21.168 50.2519 21.168ZM64.5945 24.288C63.5545 24.288 62.5065 24.112 61.4505 23.76C60.4105 23.392 59.5145 22.96 58.7625 22.464L60.3705 20.088C61.1065 20.536 61.8745 20.88 62.6745 21.12C63.4905 21.36 64.3065 21.48 65.1225 21.48C65.7145 21.48 66.1385 21.4 66.3945 21.24C66.6665 21.064 66.8025 20.848 66.8025 20.592C66.8025 20.448 66.7545 20.32 66.6585 20.208C66.5785 20.096 66.4345 20 66.2265 19.92C66.0345 19.824 65.7545 19.736 65.3865 19.656C65.0345 19.576 64.5865 19.472 64.0425 19.344C62.4105 18.992 61.2425 18.504 60.5385 17.88C59.8505 17.256 59.5065 16.488 59.5065 15.576C59.5065 14.424 60.0025 13.504 60.9945 12.816C62.0025 12.112 63.3705 11.76 65.0985 11.76C66.2025 11.76 67.1945 11.936 68.0745 12.288C68.9545 12.64 69.7145 13.016 70.3545 13.416L68.6505 15.696C68.0265 15.328 67.3785 15.048 66.7065 14.856C66.0345 14.664 65.3785 14.568 64.7385 14.568C64.4345 14.568 64.1705 14.6 63.9465 14.664C63.7385 14.728 63.5785 14.824 63.4665 14.952C63.3545 15.08 63.2985 15.224 63.2985 15.384C63.2985 15.672 63.4905 15.88 63.8745 16.008C64.2745 16.12 64.9545 16.296 65.9145 16.536C67.1305 16.808 68.0745 17.12 68.7465 17.472C69.4345 17.808 69.9145 18.216 70.1865 18.696C70.4585 19.16 70.5945 19.72 70.5945 20.376C70.5945 21.112 70.3625 21.776 69.8985 22.368C69.4505 22.96 68.7785 23.432 67.8825 23.784C67.0025 24.12 65.9065 24.288 64.5945 24.288ZM84.0491 23.352L74.7131 17.328V14.736L84.0491 8.712V12.168L77.8331 15.984V16.08L84.0491 19.896V23.352ZM87.9998 27.84L95.9198 6.96H99.0878L91.1678 27.84H87.9998ZM107.934 24.288C106.878 24.288 105.878 24.04 104.934 23.544C104.006 23.048 103.246 22.336 102.654 21.408C102.078 20.48 101.79 19.352 101.79 18.024C101.79 16.696 102.078 15.568 102.654 14.64C103.246 13.712 104.006 13 104.934 12.504C105.878 12.008 106.878 11.76 107.934 11.76C108.99 11.76 109.982 12.008 110.91 12.504C111.854 13 112.614 13.712 113.19 14.64C113.782 15.568 114.078 16.696 114.078 18.024C114.078 19.352 113.782 20.48 113.19 21.408C112.614 22.336 111.854 23.048 110.91 23.544C109.982 24.04 108.99 24.288 107.934 24.288ZM107.934 21.216C108.43 21.216 108.838 21.088 109.158 20.832C109.494 20.56 109.742 20.192 109.902 19.728C110.062 19.248 110.142 18.68 110.142 18.024C110.142 17.384 110.062 16.824 109.902 16.344C109.742 15.864 109.494 15.496 109.158 15.24C108.838 14.968 108.43 14.832 107.934 14.832C107.438 14.832 107.022 14.968 106.686 15.24C106.366 15.496 106.126 15.864 105.966 16.344C105.806 16.824 105.726 17.384 105.726 18.024C105.726 18.68 105.806 19.248 105.966 19.728C106.126 20.192 106.366 20.56 106.686 20.832C107.022 21.088 107.438 21.216 107.934 21.216ZM116.757 24V12.048H119.877L120.141 13.56H120.237C120.733 13.08 121.309 12.664 121.965 12.312C122.637 11.944 123.421 11.76 124.317 11.76C125.645 11.76 126.613 12.2 127.221 13.08C127.845 13.944 128.157 15.128 128.157 16.632V24H124.317V17.112C124.317 16.392 124.205 15.864 123.981 15.528C123.757 15.192 123.349 15.024 122.757 15.024C122.325 15.024 121.949 15.12 121.629 15.312C121.309 15.488 120.965 15.744 120.597 16.08V24H116.757ZM131.82 23.352V19.896L138.036 16.08V15.984L131.82 12.168V8.712L141.156 14.736V17.328L131.82 23.352Z" fill="#F9FFF2"/>
</svg>
